 <svg xmlns="http://www.w3.org/2000/svg" viewBox="0 0 24 24" width="24" height="24">
            <title>tool</title>
            <path fill="#A6A39F" d="M22.7 19.1l-2.1-2.1c-.3-.3-.7-.3-1 0l-2.3 2.3-6.4-6.4 2.3-2.3c.3-.3.3-.7 0-1L4.9 1.3c-.3-.3-.7-.3-1 0L1.8 3.4c-.3.3-.3.7 0 1l6.4 6.4-2.3 2.3c-.3.3-.3.7 0 1l6.4 6.4-2.3 2.3c-.3.3-.3.7 0 1l2.1 2.1c.3.3.7.3 1 0l2.1-2.1c.3-.3.3-.7 0-1l-2.3-2.3 6.4-6.4 2.3 2.3c.3.3.7.3 1 0l2.1-2.1c.4-.3.4-.7.1-1.1zm-3.8 1.9l-6.4 6.4-2.1-2.1 6.4-6.4 2.1 2.1z"/>
        </svg>